<svg id="coffee-for-coders" xmlns="http://www.w3.org/2000/svg" viewBox="0 0 381.665 160.504"><g fill="#9d7b46"><path d="M.101 145.824c-.21-3.915.07-21.464.07-26.358 0-2.866 0-5.733.07-8.53.07-3.566.349-3.356 3.217-3.356 2.027 0 10.487 0 12.584-.069 2.1-.141 2.587-.141 4.684-.21 1.259 0 1.538.21 1.678 1.328.28 2.027 0 4.125.141 6.152.139 1.329-.281 1.259-1.679 1.4l-9.858.07c-1.048.069-1.258.279-1.4 1.4a48.957 48.957 0 00-.28 8.46c.07.909.21 1.049 1.188 1.049 3.007-.21 5.873.209 8.88 0 .7-.07 0-.14.769-.14 1.189 0 1.608.419 1.748 1.608.07.7.21 1.4.21 2.1.07 1.467-.14 1.538-.14 3.005s.56 2.448-.909 2.238H10.868c-1.328 0-1.538.489-1.538 1.958 0 2.726 0 6.152-.07 8.809 0 3.287.07 3.566.07 5.873a27.926 27.926 0 00.07 3.5c0 2.586 0 3.216-3.775 3.356a17.867 17.867 0 01-4.335-.42c-.769-.14-.91-.35-.979-1.118-.14-2.237-.21-4.475-.28-6.712-.069-1.818 0-3.636 0-5.384zM68.686 134.218a43.846 43.846 0 01-1.678 11.257c-1.258 4.4-3.356 8.389-7.131 10.976a18.5 18.5 0 01-9.16 3.706c-.489 0-.909.07-1.4.07-.419 0-.839-.07-1.328-.07a19 19 0 01-9.229-3.706c-3.706-2.587-5.873-6.572-7.061-10.976a41 41 0 01-1.679-11.257 42.536 42.536 0 011.818-13.633 18.324 18.324 0 0135.028 0 42.509 42.509 0 011.82 13.633zm-9.019-7.76c-.839-3.846-2.517-7.621-5.734-9.929a6.557 6.557 0 00-1.817-.978 6.659 6.659 0 00-2.8-.56 6.358 6.358 0 00-2.727.56 5.713 5.713 0 00-1.817.978c-3.286 2.308-4.964 6.083-5.733 9.929a36.209 36.209 0 00-.42 12.864c.7 3.845 2.1 9.019 5.733 10.977a11.373 11.373 0 004.964 1.469 11.664 11.664 0 005.034-1.469c3.636-1.958 5.034-7.132 5.734-10.977a36.235 36.235 0 00-.417-12.865zM94.766 154.913c0 2.727.559 5.244-.979 5.244-2.027 0-3.216.07-5.174.07-.489 0-1.048-.07-1.538-.07-.838 0-.979-.21-.979-1.119 0-3.076.141-24.471.141-32.58-.071-5.314-.21-10.7-.071-16.081v-.839a1.744 1.744 0 011.888-1.818c2.377 0 3.706 0 5.594.07 2.167.07 4.264-.14 6.431 0a12.311 12.311 0 018.88 4.545 17.279 17.279 0 013.356 13.353c-.629 4.685-3.636 7.761-6.992 10.767-.139.21-1.188.7-1.048.98.139.628 4.335 8.739 4.963 10.137.91 1.818 4.9 9.229 5.454 11.326.21.77 0 1.329-.909 1.329l-7.691-.07c-.419 0-.908.14-1.188-.28-.21-.209-.979-2.446-1.329-3.216-2.517-5.313-4.963-10.766-7.76-16.221a.467.467 0 00-.49-.349c-.28 0-.42.42-.489.63-.07.908-.07 12.375-.07 14.192zm0-27.267s.07 2.167.07 3.287c.069 1.677 2.027 1.328 3.076 1.047a6.768 6.768 0 004.2-2.935c1.887-3.286 2.168-9.159-1.328-11.536-1.189-.84-3.916-1.819-5.244-.84-.979.769-.63 2.867-.7 3.916zM175.846 115.971a.562.562 0 01-.7.558c-3.076-.349-6.363-.7-9.439.35-5.384 1.748-7.831 7.621-8.67 12.724a25.39 25.39 0 00.77 11.886c1.049 3.567 2.936 7.342 6.292 9.23a13.47 13.47 0 006.222 1.049c2.167 0 5.664-1.259 5.664.418 0 1.259.07 1.189 0 2.448l-.21 3.985a.927.927 0 01-.419.7 2.372 2.372 0 01-.98.35c-7.62 1.188-16.5-1.049-21.324-7.411-2.8-3.636-3.984-8.181-4.475-12.725a41.126 41.126 0 01.7-14.612 25.76 25.76 0 012.168-5.873 22.653 22.653 0 0118.038-11.746c1.677-.071 6.362-.35 6.362 2.237.001 2.236.071 4.124.001 6.432zM225.492 134.218a43.846 43.846 0 01-1.678 11.257c-1.259 4.4-3.356 8.389-7.132 10.976a18.492 18.492 0 01-9.159 3.706c-.489 0-.909.07-1.4.07-.419 0-.839-.07-1.329-.07a18.992 18.992 0 01-9.228-3.706c-3.706-2.587-5.873-6.572-7.062-10.976a41.042 41.042 0 01-1.678-11.257 42.509 42.509 0 011.818-13.633 18.324 18.324 0 0135.027 0 42.509 42.509 0 011.821 13.633zm-9.02-7.76c-.839-3.846-2.516-7.621-5.733-9.929a6.579 6.579 0 00-1.818-.978 6.655 6.655 0 00-2.8-.56 6.353 6.353 0 00-2.727.56 5.7 5.7 0 00-1.817.978c-3.287 2.308-4.964 6.083-5.734 9.929a36.235 36.235 0 00-.42 12.864c.7 3.845 2.1 9.019 5.734 10.977a11.368 11.368 0 004.964 1.469 11.664 11.664 0 005.034-1.469c3.635-1.958 5.034-7.132 5.733-10.977a36.212 36.212 0 00-.416-12.865zM268.337 147.293c-1.958 4.194-4.754 8.319-9.228 9.928-4.825 1.817-10.139 2.237-15.243 2.237-5.733 0-4.963-.909-4.963-3.007 0-1.957.07-3.845.07-5.8 0-4.684.069-9.438 0-14.123 0-1.887.209-4.195.139-6.083-.139-2.1 0-14.752-.139-19.016a15.426 15.426 0 01.279-2.448 1.381 1.381 0 011.4-1.258c3.005-.28 6.082-.14 9.088-.14a19.672 19.672 0 018.53 1.259c5.873 2.587 9.789 8.18 11.327 14.263a42.8 42.8 0 01.978 14.612 28.586 28.586 0 01-1.119 6.851c-.349.907-.7 1.816-1.119 2.725zm-20.346-7.272c0 .979 0 1.957.071 2.867 0 2.1-.14 4.195-.14 6.293 0 2.027.489 1.817 3.565 1.817 4.615 0 9.859-6.223 9.859-15.172 0-1.888-.07-3.775-.141-5.663a18.989 18.989 0 00-2.587-9.3c-.908-1.468-1.887-3.006-3.635-3.7a11.985 11.985 0 00-5.244-1.119c-1.538 0-1.748.07-1.817 1.538v.839c.209 4.475.069 7.9.069 13.215zM283.004 145.824c-.139-3.915.14-21.464.14-26.358 0-2.866-.069-5.733.07-8.53.07-3.566.28-3.356 3.216-3.356 2.028 0 10.418 0 12.515-.069 2.1-.141 2.587-.141 4.684-.21 1.259 0 1.609.21 1.748 1.328.21 2.027 0 4.125.14 6.152.07 1.329-.349 1.259-1.678 1.4l-9.858.07c-1.049.069-1.328.279-1.4 1.4a42.846 42.846 0 00-.28 8.46c.071.909.21 1.049 1.189 1.049 2.936-.21 4.335.209 7.341 0 .769-.07 1.538-.14 2.307-.14 1.189 0 1.609.419 1.748 1.608l.21 2.1c0 1.467-.14 1.538-.14 3.005a2.037 2.037 0 01-2.377 2.238h-8.74c-1.4 0-1.538.489-1.538 1.958 0 2.726-.07 6.152-.07 8.809 0 3.287-.489 2.867 2.657 2.8 1.888 0 6.572.14 7.551.07a2.737 2.737 0 013.007 3.006 27.942 27.942 0 00.069 3.5c0 2.1-.489 2.867-1.888 3.146a22.873 22.873 0 01-3.775.21c-3.775.14-7.551-.14-11.326 0a18.216 18.216 0 01-4.335-.42c-.7-.14-.909-.35-.909-1.118-.14-2.237-.28-4.475-.35-6.712-.069-1.818 0-3.636 0-5.384zM330.393 154.913c0 2.727.559 5.244-.979 5.244-2.027 0-3.216.07-5.174.07-.489 0-1.048-.07-1.538-.07-.838 0-.979-.21-.979-1.119 0-3.076.141-24.471.141-32.58-.071-5.314-.21-10.7-.071-16.081v-.839a1.744 1.744 0 011.888-1.818c2.377 0 3.706 0 5.594.07 2.167.07 4.264-.14 6.431 0a12.311 12.311 0 018.88 4.545 17.279 17.279 0 013.356 13.353c-.629 4.685-3.636 7.761-6.992 10.767-.139.21-1.188.7-1.048.98.139.628 4.335 8.739 4.963 10.137.91 1.818 4.9 9.229 5.454 11.326.21.77 0 1.329-.909 1.329l-7.691-.07c-.419 0-.908.14-1.188-.28-.21-.209-.979-2.446-1.329-3.216-2.517-5.313-4.963-10.766-7.76-16.221a.467.467 0 00-.49-.349c-.28 0-.42.42-.489.63-.07.908-.07 12.375-.07 14.192zm0-27.267s.07 2.167.07 3.287c.069 1.677 2.027 1.328 3.076 1.047a6.768 6.768 0 004.195-2.935c1.887-3.286 2.168-9.159-1.328-11.536-1.189-.84-3.916-1.819-5.244-.84-.979.769-.63 2.867-.7 3.916zM370.031 107.37a18.06 18.06 0 015.454.77c1.538.489 3.076.838 2.726 2.726-.349 1.678-1.188 3.076-1.678 4.824-.21.77-.349 1.538-1.328 1.469a3.035 3.035 0 01-1.4-.49 8.179 8.179 0 00-2.1-.979c-2.587-.768-6.012 0-6.641 3.007a8.281 8.281 0 002.237 7.83c3.426 3.147 7.131 5.663 10.067 9.3 2.727 3.357 4.545 7.132 4.265 11.607a12.3 12.3 0 01-.14 1.607 16.317 16.317 0 01-1.467 4.405c-3.567 6.782-11.817 8.04-18.668 6.432-1.539-.35-5.664-.979-5.593-3.146a21.964 21.964 0 011.188-5.244 5.389 5.389 0 01.56-1.328c.489-.839 1.328-.629 2.027-.139a16.815 16.815 0 003.845 2.376c2.727.91 6.852.49 8.6-2.307 1.468-2.517.7-7.131-1.329-9.159-1.4-1.4-3.005-2.447-4.4-3.776-1.538-1.328-2.936-2.8-4.335-4.264a27.368 27.368 0 01-4.4-5.454 11.6 11.6 0 01-1.049-6.152 16.018 16.018 0 012.377-7.761 14.67 14.67 0 017.2-5.454 15.935 15.935 0 013.982-.7z"/></g><g fill="#0b161e"><path d="M50.092 15.807a1.021 1.021 0 01-1.268 1.016c-5.583-.635-11.546-1.269-17.127.634-9.77 3.172-14.21 13.828-15.732 23.09a46.1 46.1 0 001.4 21.567c1.9 6.47 5.329 13.321 11.419 16.747 3.425 1.776 7.485 1.9 11.291 1.9 3.932 0 10.276-2.283 10.276.761 0 2.284.127 2.157 0 4.441l-.381 7.231a1.68 1.68 0 01-.761 1.269 4.272 4.272 0 01-1.776.635c-13.829 2.156-29.941-1.9-38.695-13.448-5.074-6.6-7.231-14.844-8.119-23.09a74.594 74.594 0 011.269-26.516 46.836 46.836 0 013.933-10.656A41.112 41.112 0 0138.552.074c3.045-.127 11.545-.634 11.545 4.06-.005 4.066.122 7.491-.005 11.673zM137.579 48.924a79.579 79.579 0 01-3.045 20.426c-2.284 7.992-6.09 15.224-12.941 19.918a33.577 33.577 0 01-16.62 6.724c-.888 0-1.649.126-2.537.126-.761 0-1.522-.126-2.41-.126-6.217-.635-11.545-3.045-16.747-6.724-6.724-4.694-10.656-11.926-12.813-19.918a74.419 74.419 0 01-3.045-20.426c0-8.373.634-16.874 3.3-24.739C75.414 10.61 88.355.968 102.437.715c14.082.253 27.023 9.9 31.844 23.47 2.663 7.865 3.298 16.366 3.298 24.739zm-16.367-14.082c-1.522-6.978-4.567-13.829-10.4-18.015a11.921 11.921 0 00-3.3-1.777 12.1 12.1 0 00-5.075-1.014 11.543 11.543 0 00-4.948 1.014 10.376 10.376 0 00-3.3 1.777c-5.963 4.186-9.007 11.037-10.4 18.015a65.7 65.7 0 00-.761 23.343c1.268 6.978 3.806 16.366 10.4 19.918a20.588 20.588 0 009.007 2.664 21.108 21.108 0 009.134-2.664c6.6-3.552 9.135-12.94 10.4-19.918a65.684 65.684 0 00-.757-23.343zM159.954 69.984c-.381-7.1.127-38.948.127-47.829 0-5.2 0-10.4.127-15.478.126-6.47.634-6.089 5.835-6.089 3.68 0 19.031 0 22.837-.127 3.805-.254 4.693-.254 8.5-.381 2.284 0 2.791.381 3.046 2.41.507 3.68 0 7.485.253 11.165.254 2.411-.508 2.284-3.045 2.537l-17.888.127c-1.9.127-2.284.508-2.537 2.537a88.779 88.779 0 00-.508 15.351c.127 1.65.381 1.9 2.157 1.9 5.455-.38 10.657.381 16.112 0 1.269-.126 0-.253 1.4-.253 2.156 0 2.918.761 3.171 2.917.127 1.269.381 2.538.381 3.807.127 2.664-.254 2.79-.254 5.455s1.015 4.44-1.649 4.06h-18.523c-2.41 0-2.791.888-2.791 3.552 0 4.948 0 11.164-.127 15.985 0 5.963.127 6.47.127 10.657a50.664 50.664 0 00.127 6.343c0 4.694 0 5.836-6.851 6.09a32.471 32.471 0 01-7.865-.761c-1.4-.254-1.65-.635-1.777-2.03-.253-4.06-.38-8.12-.507-12.179-.127-3.3 0-6.6 0-9.769zM220.185 69.984c-.381-7.1.127-38.948.127-47.829 0-5.2 0-10.4.127-15.478.126-6.47.634-6.089 5.836-6.089 3.679 0 19.03 0 22.836-.127 3.806-.254 4.694-.254 8.5-.381 2.285 0 2.792.381 3.046 2.41.507 3.68 0 7.485.253 11.165.254 2.411-.507 2.284-3.044 2.537l-17.888.127c-1.9.127-2.285.508-2.538 2.537a88.767 88.767 0 00-.508 15.351c.128 1.65.381 1.9 2.157 1.9 5.456-.38 10.657.381 16.112 0 1.269-.126 0-.253 1.4-.253 2.157 0 2.918.761 3.171 2.917.128 1.269.381 2.538.381 3.807.127 2.664-.253 2.79-.253 5.455s1.014 4.44-1.65 4.06h-18.523c-2.41 0-2.791.888-2.791 3.552 0 4.948 0 11.164-.127 15.985 0 5.963.127 6.47.127 10.657a50.462 50.462 0 00.128 6.343c0 4.694 0 5.836-6.852 6.09a32.471 32.471 0 01-7.865-.761c-1.4-.254-1.65-.635-1.777-2.03-.253-4.06-.38-8.12-.507-12.179-.127-3.3 0-6.6 0-9.769zM280.426 69.984c-.254-7.1.253-38.948.253-47.829 0-5.2-.126-10.4.127-15.478.127-6.47.508-6.089 5.836-6.089 3.679 0 18.9 0 22.709-.127 3.806-.254 4.694-.254 8.5-.381 2.284 0 2.918.381 3.172 2.41.381 3.68 0 7.485.254 11.165.127 2.411-.635 2.284-3.045 2.537l-17.888.127c-1.9.127-2.411.508-2.538 2.537-.507 4.948-1.014 10.4-.507 15.351.127 1.65.381 1.9 2.157 1.9 5.328-.38 7.865.381 13.321 0 1.4-.126 2.791-.253 4.186-.253 2.157 0 2.918.761 3.172 2.917l.381 3.807c0 2.664-.254 2.79-.254 5.455s-1.776 4.44-4.313 4.06H300.09c-2.537 0-2.791.888-2.791 3.552 0 4.948-.127 11.164-.127 15.985 0 5.963-.888 5.2 4.821 5.075 3.426 0 11.926.253 13.7.127 2.537-.127 5.455 1.268 5.455 5.455a50.662 50.662 0 00.127 6.343c0 3.806-.888 5.2-3.426 5.709-2.79.507-4.059.254-6.85.381-6.851.254-13.7-.254-20.553 0a33.1 33.1 0 01-7.865-.761c-1.269-.254-1.65-.635-1.65-2.03-.254-4.06-.507-8.12-.634-12.179-.127-3.3 0-6.6 0-9.769zM340.801 69.984c-.254-7.1.254-38.948.254-47.829 0-5.2-.127-10.4.126-15.478.127-6.47.508-6.089 5.836-6.089 3.68 0 18.9 0 22.71-.127 3.806-.254 4.694-.254 8.5-.381 2.285 0 2.918.381 3.173 2.41.38 3.68 0 7.485.253 11.165.127 2.411-.634 2.284-3.045 2.537l-17.888.127c-1.9.127-2.411.508-2.537 2.537-.507 4.948-1.015 10.4-.507 15.351.126 1.65.38 1.9 2.156 1.9 5.329-.38 7.866.381 13.321 0 1.4-.126 2.791-.253 4.187-.253 2.156 0 2.917.761 3.172 2.917l.38 3.807c0 2.664-.254 2.79-.254 5.455s-1.776 4.44-4.313 4.06h-15.859c-2.537 0-2.79.888-2.79 3.552 0 4.948-.128 11.164-.128 15.985 0 5.963-.888 5.2 4.821 5.075 3.426 0 11.926.253 13.7.127 2.537-.127 5.455 1.268 5.455 5.455a50.875 50.875 0 00.127 6.343c0 3.806-.888 5.2-3.426 5.709-2.79.507-4.059.254-6.85.381-6.851.254-13.7-.254-20.553 0a33.1 33.1 0 01-7.865-.761c-1.269-.254-1.65-.635-1.65-2.03-.253-4.06-.507-8.12-.634-12.179-.127-3.3 0-6.6 0-9.769z"/></g></svg>