<svg xmlns="http://www.w3.org/2000/svg" width="24" height="24" viewBox="0 0 24 24"><g transform="translate(-1093.147 -4251.403)"><path d="M2525.8,861.071a2.339,2.339,0,0,0-1.343-1.335,3.913,3.913,0,0,0-1.313-.242c-.746-.034-.97-.042-2.859-.042s-2.113.008-2.859.042a3.92,3.92,0,0,0-1.314.242,2.337,2.337,0,0,0-1.343,1.335,3.872,3.872,0,0,0-.243,1.306c-.034.742-.042.964-.042,2.842s.007,2.1.042,2.842a3.874,3.874,0,0,0,.243,1.306,2.335,2.335,0,0,0,1.343,1.335,3.923,3.923,0,0,0,1.314.242c.746.034.969.041,2.859.041s2.113-.007,2.859-.041a3.916,3.916,0,0,0,1.313-.242,2.338,2.338,0,0,0,1.343-1.335,3.874,3.874,0,0,0,.243-1.306c.034-.742.041-.964.041-2.842s-.007-2.1-.041-2.842A3.872,3.872,0,0,0,2525.8,861.071Zm-5.515,7.76a3.612,3.612,0,1,1,3.633-3.612A3.622,3.622,0,0,1,2520.289,868.832Zm3.776-6.523a.844.844,0,1,1,.849-.844A.846.846,0,0,1,2524.065,862.309Z" transform="translate(-1415.179 3398.173)" fill="#9d7b46"/><path d="M2530.118,872.649a2.345,2.345,0,1,0,2.358,2.344A2.352,2.352,0,0,0,2530.118,872.649Z" transform="translate(-1425.009 3388.399)" fill="#9d7b46"/><path d="M2502.727,835.456a12,12,0,1,0,12,12A12,12,0,0,0,2502.727,835.456Zm6.994,14.89a5.131,5.131,0,0,1-.329,1.707,3.434,3.434,0,0,1-.816,1.246,3.471,3.471,0,0,1-1.253.811,5.224,5.224,0,0,1-1.717.327c-.755.034-1,.042-2.917.042s-2.162-.008-2.917-.042a5.219,5.219,0,0,1-1.717-.327,3.61,3.61,0,0,1-2.069-2.057,5.138,5.138,0,0,1-.329-1.707c-.034-.751-.042-.99-.042-2.9s.008-2.15.042-2.9a5.141,5.141,0,0,1,.329-1.707,3.606,3.606,0,0,1,2.069-2.057,5.214,5.214,0,0,1,1.717-.327c.755-.034,1-.042,2.917-.042s2.162.008,2.917.042a5.22,5.22,0,0,1,1.717.327,3.6,3.6,0,0,1,2.069,2.057,5.134,5.134,0,0,1,.329,1.707c.034.75.043.99.043,2.9S2509.755,849.6,2509.721,850.346Z" transform="translate(-1397.58 3415.947)" fill="#9d7b46"/></g></svg>