<svg xmlns="http://www.w3.org/2000/svg" width="23.921" height="23.921" viewBox="0 0 23.921 23.921"><path d="M2477.792,678.234a11.961,11.961,0,1,0,11.96,11.961A11.96,11.96,0,0,0,2477.792,678.234Zm-2.992,17.62h-2.536V687.7h2.536Zm-1.267-9.266a1.469,1.469,0,1,1,1.468-1.47A1.468,1.468,0,0,1,2473.532,686.588Zm10.755,9.266h-2.531V691.89c0-.946-.018-2.162-1.317-2.162-1.318,0-1.52,1.03-1.52,2.093v4.032h-2.53V687.7h2.429v1.114h.034a2.662,2.662,0,0,1,2.4-1.317c2.563,0,3.037,1.688,3.037,3.883Z" transform="translate(-2465.831 -678.234)" fill="#9d7b46"/></svg>