<svg xmlns="http://www.w3.org/2000/svg" viewBox="0 0 237.027 25"><defs><style>.a{fill:#e5e4e0}</style></defs><path class="a" d="M16.258 21.518h3.1a1.7 1.7 0 001.7-1.7v-4.543h.428a1.235 1.235 0 001.192-1.559L21.231 8.3a10.76 10.76 0 10-19.6 8.162L6.738 25h9.517zm-7.034-1.719c-2.911-.9-5.071-4.23-5.071-8.2 0-4.419 2.68-8.044 6.092-8.409 1.157 2.358 1.632 4.114 1.45 5.355a4.052 4.052 0 01-1.531 2.385 5.788 5.788 0 00-2.078 3.453A10.155 10.155 0 009.225 19.8zm2.156.211c-1.157-2.358-1.632-4.114-1.45-5.355a4.052 4.052 0 011.531-2.385 5.786 5.786 0 002.078-3.453A10.156 10.156 0 0012.4 3.403c2.911.9 5.071 4.23 5.071 8.2.001 4.418-2.678 8.043-6.09 8.408zM37.173 19.064c0 .131.033.262.033.393 0 1.736-.131 3.013-.131 4.422 0 1.048-.1 1.114-.72 1.114-.884 0-2.194-.066-3.079 0-.328 0-.426-.23-.426-.622-.229-3.963-.066-16.475-.066-18.473 0-1.375 0-4.454.033-4.553.1-.524.164-.917.885-.917.786 0 1.867 0 2.653.033.72.033.852.1.884.819.065 1.212-.262 7.206-.229 9.04a.4.4 0 00.065.164.254.254 0 00.229-.1c.426-.72 4.815-8.745 5.241-9.564a.856.856 0 01.819-.361c.721 0 2.98-.033 3.6 0a.283.283 0 01.295.328 6.323 6.323 0 01-.458 1.179c-.852 1.507-1.441 2.555-2.489 4.225a52.442 52.442 0 00-2.555 4.586 4.372 4.372 0 00-.327 1.113.782.782 0 00.1.459c.655 1.081 1.212 2.293 1.867 3.406.229.425 4.127 7.4 4.421 7.828.2.295.95 1.408-.2 1.408-1.114 0-2.1-.066-3.21 0a2.468 2.468 0 01-.491-.033c-.589-.033-5.5-9.564-6.55-10.939a.486.486 0 00-.229-.1c-.033 0-.1.131-.1.229-.029.658.135 3.769.135 4.916zM54.205 24.73c-1.015.033-1.769.033-2.587.033-.131 0-.295.033-.393-.033-.2-.033 1.376-6.878 1.6-7.828.655-2.686 1.179-5.306 1.769-8.024.458-2.162 1.637-7.369 1.7-7.828.065-.491.033-.622.491-.622 1.146.065 2.326 0 3.439 0 .524 0 .327.033.557.622.164.983 3.9 18.7 4.028 19.095.3.917.361 1.867.656 2.784.1.262.622 1.8-.131 1.8-.557.033-2.457.033-2.98.033-.393 0-.426.033-.557-.36-.2-.557-.36-1.245-.556-1.8l-.229-.753a.617.617 0 00-.655-.458 24.42 24.42 0 00-4.094.033c-.328.066-.426.1-.459.491-.065.491-.262 2.849-.917 2.849a3.609 3.609 0 01-.682-.034zm4.29-7.435c.3 0 .59.033.885.033.589 0 .72 0 .425-1.179-.294-1.343-.491-2.391-.786-3.635-.131-.393-.262-1.375-.393-1.768a.277.277 0 00-.164-.1c-.033 0-.1.066-.131.131-.2.95-1.081 4.847-1.245 5.568-.229.95-.2.95.72.95zM69.046 18.277c-.1-1.834.033-10.055.033-12.348 0-1.343 0-2.685.033-4 .033-1.67.164-1.572 1.507-1.572.95 0 4.913 0 5.9-.033.983-.066 1.212-.066 2.194-.1.59 0 .72.1.786.622.131.95 0 1.932.066 2.882.065.623-.131.59-.786.655l-4.618.033c-.491.033-.589.131-.655.655a22.871 22.871 0 00-.131 3.963c.033.426.1.491.557.491 1.408-.1 2.751.1 4.16 0 .327-.033 0-.065.36-.065.557 0 .754.2.819.753a9.844 9.844 0 01.1.983c.033.688-.065.72-.065 1.408s.262 1.146-.426 1.048h-4.782c-.623 0-.721.23-.721.917 0 1.277 0 2.882-.033 4.127 0 1.54.033 1.67.033 2.751a13.11 13.11 0 00.033 1.638c0 1.212 0 1.507-1.768 1.572a8.388 8.388 0 01-2.031-.2c-.36-.065-.426-.164-.458-.524-.066-1.048-.1-2.1-.131-3.144-.032-.852 0-1.7 0-2.522zM82.864 18.277c-.1-1.834.033-10.055.033-12.348 0-1.343 0-2.685.032-4 .033-1.67.164-1.572 1.507-1.572.95 0 4.913 0 5.9-.033.983-.066 1.212-.066 2.194-.1.59 0 .72.1.786.622.131.95 0 1.932.065 2.882.066.623-.131.59-.786.655l-4.618.033c-.491.033-.59.131-.655.655a22.92 22.92 0 00-.131 3.963c.033.426.1.491.557.491 1.408-.1 2.751.1 4.16 0 .327-.033 0-.065.36-.065.557 0 .753.2.819.753.032.328.1.655.1.983.033.688-.066.72-.066 1.408s.262 1.146-.426 1.048h-4.782c-.623 0-.721.23-.721.917 0 1.277 0 2.882-.032 4.127 0 1.54.032 1.67.032 2.751a13.056 13.056 0 00.033 1.638c0 1.212 0 1.507-1.769 1.572a8.38 8.38 0 01-2.03-.2c-.361-.065-.426-.164-.459-.524-.065-1.048-.1-2.1-.131-3.144-.033-.852 0-1.7 0-2.522zM96.685 18.277c-.065-1.834.066-10.055.066-12.348 0-1.343-.033-2.685.033-4 .033-1.67.131-1.572 1.507-1.572.949 0 4.88 0 5.863-.033.983-.066 1.212-.066 2.194-.1.59 0 .753.1.819.622.1.95 0 1.932.065 2.882.033.623-.163.59-.786.655l-4.618.033c-.491.033-.622.131-.655.655a20.05 20.05 0 00-.131 3.963c.033.426.1.491.557.491 1.375-.1 2.031.1 3.438 0 .361-.033.721-.065 1.081-.065.557 0 .753.2.819.753l.1.983c0 .688-.066.72-.066 1.408a.954.954 0 01-1.113 1.048h-4.094c-.655 0-.721.23-.721.917 0 1.277-.033 2.882-.033 4.127 0 1.54-.229 1.343 1.245 1.31.884 0 3.079.066 3.538.033a1.282 1.282 0 011.408 1.408 13.117 13.117 0 00.032 1.638c0 .983-.229 1.343-.884 1.474a10.692 10.692 0 01-1.769.1c-1.768.066-3.537-.066-5.306 0a8.548 8.548 0 01-2.031-.2c-.328-.065-.426-.164-.426-.524-.065-1.048-.131-2.1-.164-3.144-.032-.852 0-1.7 0-2.522zM115.027 16.541c0 1.572.1 7.566.066 7.8a.885.885 0 01-.884.556c-1.081.033-2.1.033-3.177.1a.369.369 0 01-.393-.328 9.659 9.659 0 01-.032-1.375c.065-1.31-.066-7.271-.1-8.581s.065-10.383.065-13.592c0-.622.262-.786.885-.753.95 0 1.375 0 2.325.032.655.033 1.146-.032 1.146 1.212 0 1.147.066 2.391.066 3.537-.033 3.695-.065 7.654.033 11.392zM132.353 24.009c0 .983-.361.95-1.016.95-.982 0-2.358.164-2.652-.164-.262-.229-5.11-11.922-5.8-13.4-.065-.131-.229-.458-.361-.393-.163.066-.1.295-.1.426-.033 1.146.163 11.038.163 12.61 0 .786-.032.917-.687.917h-1.638a9.659 9.659 0 00-1.376.033c-.327 0-.491-.1-.524-.426v-2.587c.065-2.751 0-19.062 0-20.274 0-1.048.294-1.245 1.343-1.245.721-.033 1.441-.033 2.162-.033a.441.441 0 01.492.328c.884 2.063 4.651 11.529 5.24 12.675a4.494 4.494 0 00.655 1.245h.033c.131-.131.1-.786.1-.983 0-.491-.262-11.988-.262-12.217 0-.327-.1-.622.066-.851.1-.131.524-.164.688-.2.917-.065 2 .033 2.915 0 .458 0 .426.328.524.753.101.466.035 22.279.035 22.836zM135.694 18.277c-.065-1.834.065-10.055.065-12.348 0-1.343-.033-2.685.032-4 .033-1.67.131-1.572 1.507-1.572.95 0 4.88 0 5.863-.033.983-.066 1.212-.066 2.194-.1.59 0 .753.1.819.622.1.95 0 1.932.066 2.882.033.623-.164.59-.786.655l-4.618.033c-.491.033-.622.131-.655.655a20.05 20.05 0 00-.131 3.963c.033.426.1.491.557.491 1.375-.1 2.03.1 3.438 0 .361-.033.721-.065 1.081-.065.557 0 .754.2.819.753l.1.983c0 .688-.066.72-.066 1.408a.954.954 0 01-1.113 1.048h-4.094c-.655 0-.721.23-.721.917 0 1.277-.033 2.882-.033 4.127 0 1.54-.229 1.343 1.245 1.31.885 0 3.079.066 3.538.033a1.282 1.282 0 011.408 1.408 13.063 13.063 0 00.033 1.638c0 .983-.229 1.343-.884 1.474a10.692 10.692 0 01-1.769.1c-1.768.066-3.537-.066-5.306 0a8.546 8.546 0 01-2.031-.2c-.328-.065-.426-.164-.426-.524-.066-1.048-.131-2.1-.164-3.144-.032-.852 0-1.7 0-2.522z"/><g><path class="a" d="M162.631.201l1.179-.1c.492 0 .852.163.95.688.426 2.358 2.849 13.167 3.6 13.167s3.014-11.824 3.21-12.741c.065-.36.229-1.048.59-1.048h2.26c.524 0 1.375-.262 1.441.491.2 2.293.524 4.88.753 7.173.295 2.686.622 5.371.95 8.057.229 1.7.556 3.373.786 5.077.164.819.327 1.8.458 2.62a2.619 2.619 0 01.1.492c-.033.721-.589.524-1.146.589a18.3 18.3 0 01-1.9 0c-.393 0-.95.2-1.146-.262-.1-.229-1.179-10.743-1.7-10.743-.458 0-2.358 9.073-2.555 9.826-.163.688 0 1.212-.819 1.212s-1.6-.066-2.423 0a.579.579 0 01-.688-.524c-.786-2.817-2.424-10.481-3.046-10.481-.393 0-1.375 9.432-1.441 10.186a1.278 1.278 0 01-.065.491c-.1.393-.459.361-.787.328a25.514 25.514 0 01-2.718-.033c-.687-.131-.623-.72-.557-1.343.523-4.585 1.048-9.3 1.6-13.887.328-2.784.622-5.863.95-8.647.1-.655.688-.557 1.179-.557.331.002.658-.031.985-.031zM186.705 16.282c0 1.572.1 7.566.065 7.8a.885.885 0 01-.884.557c-1.081.033-2.1.033-3.177.1a.369.369 0 01-.393-.328 9.623 9.623 0 01-.032-1.375c.065-1.31-.066-7.271-.1-8.581s.065-10.383.065-13.592c0-.622.262-.786.885-.753.95 0 1.375 0 2.325.032.656.033 1.147-.032 1.147 1.212 0 1.147.065 2.391.065 3.537-.032 3.694-.064 7.658.034 11.391zM204.036 23.75c0 .983-.36.95-1.015.95-.982 0-2.358.164-2.653-.164-.262-.229-5.109-11.922-5.8-13.4-.065-.131-.229-.458-.36-.393-.164.065-.1.295-.1.426-.033 1.146.164 11.038.164 12.61 0 .786-.033.917-.687.917h-1.638a9.646 9.646 0 00-1.376.033c-.328 0-.492-.1-.524-.426v-2.587c.066-2.751 0-19.062 0-20.274 0-1.048.3-1.245 1.343-1.245.72-.033 1.441-.033 2.162-.033a.441.441 0 01.491.328c.885 2.063 4.651 11.529 5.241 12.675a4.479 4.479 0 00.655 1.245h.032c.131-.131.1-.786.1-.983 0-.491-.262-11.988-.262-12.217 0-.327-.1-.622.066-.851.1-.131.524-.164.688-.2.917-.065 2 .033 2.915 0 .458 0 .426.328.524.753.095.466.034 22.279.034 22.836zM221.129 18.706c-.917 1.965-2.227 3.9-4.323 4.651a20.309 20.309 0 01-7.14 1.048c-2.686 0-2.325-.426-2.325-1.408 0-.917.033-1.8.033-2.718 0-2.194.033-4.422 0-6.616 0-.885.1-1.965.065-2.849-.065-.983 0-6.911-.065-8.909a7.217 7.217 0 01.131-1.147.646.646 0 01.655-.589c1.408-.131 2.849-.065 4.258-.065a9.21 9.21 0 014 .589 9.791 9.791 0 015.306 6.682 20.031 20.031 0 01.458 6.845 13.451 13.451 0 01-.524 3.21c-.169.425-.333.851-.529 1.276zm-9.531-3.406c0 .459 0 .917.032 1.343 0 .983-.066 1.965-.066 2.948 0 .95.229.852 1.671.852 2.162 0 4.618-2.915 4.618-7.107 0-.884-.033-1.768-.066-2.653a8.9 8.9 0 00-1.211-4.356 3.8 3.8 0 00-1.7-1.736 5.614 5.614 0 00-2.456-.524c-.721 0-.819.033-.852.721v.393c.1 2.1.033 3.7.033 6.19zM231.577.004a8.454 8.454 0 012.555.36c.72.229 1.441.393 1.277 1.277-.163.786-.557 1.441-.786 2.26-.1.36-.164.721-.622.688a1.425 1.425 0 01-.656-.229 3.829 3.829 0 00-.982-.458c-1.212-.361-2.817 0-3.112 1.409a3.882 3.882 0 001.048 3.668 42.437 42.437 0 014.717 4.356 7.727 7.727 0 012 5.437 5.77 5.77 0 01-.066.753 7.666 7.666 0 01-.687 2.063c-1.67 3.177-5.535 3.767-8.745 3.014-.72-.164-2.653-.458-2.621-1.474a10.278 10.278 0 01.557-2.456 2.55 2.55 0 01.262-.623c.229-.393.622-.294.95-.065a7.859 7.859 0 001.8 1.113c1.278.426 3.21.229 4.029-1.081a4.1 4.1 0 00-.622-4.291c-.656-.655-1.408-1.146-2.063-1.769-.721-.622-1.376-1.31-2.031-2a12.828 12.828 0 01-2.064-2.555 5.444 5.444 0 01-.491-2.882 7.514 7.514 0 011.114-3.636 6.869 6.869 0 013.374-2.555 7.46 7.46 0 011.865-.324z"/></g></svg>