<svg xmlns="http://www.w3.org/2000/svg" viewBox="0 0 107.37 121.466"><g fill="#0b161e"><path d="M.041 60.682c-.031-.913-.118-3.534.117-3.711a1.266 1.266 0 01.736-.117c1.031 0 2.121-.031 3.18-.031 6.126 0 6.656 5.006 6.656 7.715 0 3-1.356 6.537-6.272 6.537-.237 0-1.06-.088-1.06.324 0 .383.118 7.331-.088 7.42a2.026 2.026 0 01-.736.088c-1 .029-1 0-2 0-.442 0-.5-.088-.5-.53C.071 77.171.071 62.419.041 60.682zm3.386 6.066c-.03.324-.03.648-.03.972a.473.473 0 00.412.442 3.126 3.126 0 002.356-1 5.311 5.311 0 00.853-3.769 3.246 3.246 0 00-2.826-3.209c-.294-.029-.677-.029-.766.295a3.915 3.915 0 000 .589c-.028 1.175.001 5.032.001 5.684zM17.828 76.701c0 1.147.236 2.208-.411 2.208-.854 0-1.356.029-2.179.029-.206 0-.442-.029-.648-.029-.353 0-.412-.088-.412-.471 0-1.295.059-10.306.059-13.721-.03-2.238-.089-4.505-.03-6.773v-.353a.735.735 0 01.8-.766c1 0 1.561 0 2.356.031.912.029 1.8-.059 2.708 0a5.185 5.185 0 013.739 1.913 7.276 7.276 0 011.414 5.624c-.265 1.973-1.532 3.268-2.944 4.534-.059.088-.5.295-.442.412.058.265 1.825 3.68 2.09 4.269a50.577 50.577 0 012.3 4.77c.088.324 0 .56-.382.56l-3.24-.029c-.176 0-.382.059-.5-.118-.088-.088-.411-1.031-.558-1.354-1.06-2.238-2.091-4.536-3.269-6.832a.2.2 0 00-.206-.147c-.118 0-.177.177-.205.265-.04.383-.04 5.212-.04 5.978zm0-11.484s.031.913.031 1.384c.028.706.853.558 1.295.441a2.841 2.841 0 001.766-1.236c.8-1.384.914-3.857-.558-4.858-.5-.353-1.649-.766-2.208-.353-.413.324-.266 1.208-.294 1.649zM44.511 67.984a18.482 18.482 0 01-.707 4.742 8 8 0 01-3 4.622 7.792 7.792 0 01-3.857 1.561c-.206 0-.383.029-.589.029-.177 0-.353-.029-.56-.029a7.979 7.979 0 01-6.86-6.183 17.282 17.282 0 01-.708-4.742 17.873 17.873 0 01.767-5.741 7.717 7.717 0 0114.751 0 17.866 17.866 0 01.763 5.741zm-3.8-3.268a6.746 6.746 0 00-2.414-4.181 3.507 3.507 0 00-1.944-.648 2.683 2.683 0 00-1.149.236 2.385 2.385 0 00-.764.412 6.49 6.49 0 00-2.415 4.181 15.281 15.281 0 00-.177 5.418c.295 1.619.884 3.8 2.414 4.623a4.784 4.784 0 002.091.618 4.907 4.907 0 002.121-.618c1.53-.825 2.119-3 2.414-4.623a15.253 15.253 0 00-.176-5.418zM60.356 73.49a7.43 7.43 0 01-3.886 4.181 18.256 18.256 0 01-6.418.942c-2.415 0-2.092-.383-2.092-1.266 0-.823.031-1.619.031-2.443 0-1.973.03-3.975 0-5.948 0-.794.088-1.767.059-2.561-.059-.884 0-6.213-.059-8.01a6.6 6.6 0 01.117-1.03.584.584 0 01.589-.531c1.268-.117 2.562-.058 3.828-.058a8.3 8.3 0 013.593.529 8.8 8.8 0 014.77 6.007 18.012 18.012 0 01.412 6.154 12.041 12.041 0 01-.471 2.885c-.149.385-.296.767-.473 1.149zm-8.568-3.062c0 .412 0 .825.03 1.208 0 .882-.059 1.766-.059 2.65 0 .854.206.766 1.5.766 1.945 0 4.153-2.62 4.153-6.39 0-.794-.031-1.589-.059-2.384a8 8 0 00-1.09-3.916 3.416 3.416 0 00-1.531-1.561 5.04 5.04 0 00-2.209-.471c-.647 0-.735.029-.765.648v.353c.088 1.884.03 3.327.03 5.565zM64.836 61.655c0-1.266.029-2.562.029-3.828 0-.708.236-.913.943-.972.736-.031 1.473.059 2.209 0h.529c.471.029.413.471.383.825-.029.676-.029 1.354-.029 2.031-.087 3.592-.354 7.274-.177 10.866.089 1.648 0 4.446 2.355 4.505a2.325 2.325 0 002.091-1.5c.913-2.326.589-5.035.619-7.479.031-2.857-.03-5.713-.059-8.54a.624.624 0 01.589-.647 21.222 21.222 0 012.385-.059c.648.029.853.383.853 1.03 0 3.888-.088 7.48-.147 11.337-.029 2.679.354 5.948-1.589 8.039a6.213 6.213 0 01-4.21 1.707 5.973 5.973 0 01-5.833-2.915c-.853-1.649-.823-3.682-.853-5.477-.059-2.947-.088-5.95-.088-8.923zM92.636 60.3a.237.237 0 01-.295.236 9.07 9.07 0 00-3.975.147c-2.268.736-3.3 3.209-3.651 5.359a10.692 10.692 0 00.324 5.006 6.37 6.37 0 002.65 3.887 5.67 5.67 0 002.621.442c.912 0 2.385-.53 2.385.177 0 .53.029.5 0 1.03l-.088 1.679a.387.387 0 01-.177.295.991.991 0 01-.411.147c-3.21.5-6.951-.442-8.982-3.121a10.522 10.522 0 01-1.885-5.359 17.342 17.342 0 01.295-6.154 10.881 10.881 0 01.914-2.473 9.538 9.538 0 017.6-4.947c.706-.029 2.679-.147 2.679.941-.004.941.027 1.731-.004 2.708zM99.883 75.699c-.059-2.651.089-12.515.089-14.634 0-.088-.031-.177-.031-.265-.058-.324-.264-.412-.558-.412-.472-.029-2.15-.029-2.562-.029-.707 0-.677-.825-.677-1.649 0-1.3-.029-1.885.707-1.885.972 0 1.766.031 2.739.031 1.972-.031 6.772-.031 7.272-.031.707 0 .471 1.119.471 1.767 0 .736.147 1.8-.471 1.8h-2.592c-.589 0-.736.147-.736.589l-.087 16.489c.028.5.147 1.443-.414 1.443h-2.649c-.411 0-.442-.059-.442-.471-.032-.918-.032-1.831-.059-2.743zM17.267 110.395a18.472 18.472 0 01-.707 4.742 7.992 7.992 0 01-3 4.622 7.785 7.785 0 01-3.856 1.561c-.206 0-.383.029-.589.029-.178 0-.353-.029-.56-.029a7.978 7.978 0 01-6.861-6.183 17.276 17.276 0 01-.707-4.742 17.9 17.9 0 01.766-5.741 7.717 7.717 0 0114.752 0 17.9 17.9 0 01.762 5.741zm-3.8-3.268a6.747 6.747 0 00-2.415-4.181 2.777 2.777 0 00-.765-.412 2.807 2.807 0 00-1.178-.236 2.675 2.675 0 00-1.149.236 2.407 2.407 0 00-.766.412 6.483 6.483 0 00-2.414 4.181 15.219 15.219 0 00-.177 5.418c.295 1.619.884 3.8 2.414 4.623a4.784 4.784 0 002.091.618 4.908 4.908 0 002.121-.618c1.529-.825 2.118-3 2.413-4.623a15.25 15.25 0 00-.174-5.418zM20.747 115.285c-.088-1.649.028-9.041.028-11.1 0-1.208 0-2.415.031-3.593.028-1.5.147-1.413 1.354-1.413.854 0 4.417 0 5.3-.029.884-.06 1.09-.06 1.973-.088.529 0 .648.088.706.56.118.853 0 1.736.059 2.591.059.56-.117.53-.706.589l-4.153.029c-.442.029-.53.118-.589.589a20.6 20.6 0 00-.117 3.563c.03.383.088.442.5.442 1.268-.088 2.474.088 3.739 0 .295-.029 0-.059.325-.059.5 0 .677.177.736.677.028.294.088.589.088.884.028.618-.06.647-.06 1.265s.236 1.031-.382.942h-4.3c-.559 0-.647.206-.647.825 0 1.149 0 2.592-.031 3.71 0 1.384.031 1.5.031 2.474a11.534 11.534 0 00.03 1.471c0 1.09 0 1.355-1.592 1.414a7.522 7.522 0 01-1.824-.177c-.325-.059-.384-.147-.414-.471-.059-.942-.087-1.884-.118-2.826-.03-.766 0-1.532 0-2.267zM41.509 104.066c0-1.266.029-2.562.029-3.828 0-.708.236-.913.943-.972.736-.031 1.473.059 2.209 0h.529c.472.029.414.471.383.825-.029.676-.029 1.354-.029 2.031-.087 3.592-.354 7.274-.176 10.866.089 1.648 0 4.446 2.355 4.505a2.325 2.325 0 002.09-1.5c.913-2.326.589-5.035.618-7.479.031-2.857-.029-5.713-.058-8.54a.623.623 0 01.589-.647 21.194 21.194 0 012.384-.059c.648.029.854.383.854 1.03 0 3.888-.09 7.48-.147 11.337-.031 2.679.352 5.948-1.59 8.039a6.214 6.214 0 01-4.211 1.707 5.971 5.971 0 01-5.83-2.915c-.854-1.649-.825-3.682-.854-5.477-.059-2.947-.088-5.95-.088-8.923zM61.331 119.464a1.809 1.809 0 01-.471 1.237 1.853 1.853 0 11-1.178-3.062 1.846 1.846 0 011.649 1.825zM70.783 99.089a7.681 7.681 0 012.3.324c.647.207 1.295.355 1.147 1.149-.147.707-.5 1.3-.706 2.032-.089.324-.147.648-.559.618a1.275 1.275 0 01-.589-.206 3.465 3.465 0 00-.884-.412c-1.09-.324-2.532 0-2.8 1.266a3.492 3.492 0 00.942 3.3 38.171 38.171 0 014.24 3.916 6.946 6.946 0 011.8 4.888 5.286 5.286 0 01-.059.677 6.888 6.888 0 01-.619 1.855c-1.5 2.856-4.976 3.386-7.861 2.708-.648-.147-2.386-.412-2.356-1.325a9.2 9.2 0 01.5-2.208 2.219 2.219 0 01.234-.56c.206-.353.56-.265.854-.059a7.062 7.062 0 001.619 1 3.209 3.209 0 003.623-.972 3.684 3.684 0 00-.56-3.857c-.589-.589-1.267-1.031-1.854-1.59-.649-.56-1.237-1.178-1.826-1.8a11.573 11.573 0 01-1.855-2.3 4.893 4.893 0 01-.442-2.591 6.759 6.759 0 011-3.269 6.173 6.173 0 013.034-2.3 6.791 6.791 0 011.677-.284zM82.771 119.464a1.809 1.809 0 01-.471 1.237 1.853 1.853 0 11-1.178-3.062 1.845 1.845 0 011.649 1.825zM88.928 121.084c-.914.029-1.591.029-2.327.029-.118 0-.265.029-.353-.029-.177-.029 1.236-6.184 1.443-7.037.589-2.415 1.059-4.771 1.59-7.215.411-1.944 1.471-6.624 1.531-7.037.059-.442.029-.561.44-.561 1.031.06 2.092 0 3.093 0 .471 0 .294.031.5.561.147.884 3.5 16.813 3.621 17.166.265.825.324 1.679.589 2.5.09.237.56 1.62-.118 1.62-.5.029-2.208.029-2.68.029-.352 0-.382.029-.5-.324-.177-.5-.324-1.118-.5-1.62l-.206-.676a.555.555 0 00-.589-.412 21.941 21.941 0 00-3.68.029c-.294.059-.383.088-.412.441-.059.442-.236 2.562-.825 2.562a3.216 3.216 0 01-.617-.026zm3.856-6.683c.266 0 .53.028.8.028.53 0 .648 0 .383-1.059-.264-1.208-.442-2.15-.706-3.268-.119-.355-.237-1.237-.353-1.59-.031-.029-.088-.088-.147-.088-.031 0-.088.059-.119.118-.176.854-.971 4.358-1.118 5-.206.855-.177.855.648.855zM106.391 119.464a1.81 1.81 0 01-.471 1.237 1.853 1.853 0 11-1.178-3.062 1.846 1.846 0 011.649 1.825z"/></g><g fill="#9d7b46"><path d="M55.237 20.884a4.034 4.034 0 011.45-2.409 2.826 2.826 0 001.067-1.663 7.021 7.021 0 00-1.011-3.736c-2.381.254-4.25 2.784-4.25 5.866 0 2.769 1.508 5.089 3.538 5.72a7.084 7.084 0 01-.794-3.778z"/><path d="M58.249 13.223A7.087 7.087 0 0159.043 17a4.036 4.036 0 01-1.45 2.409 2.826 2.826 0 00-1.067 1.663 7.024 7.024 0 001.011 3.736c2.381-.254 4.249-2.784 4.249-5.867-.001-2.767-1.508-5.088-3.537-5.718z"/><path d="M57.563.028L57.524 0 31.495 19.687l25.99 19.659.039.029 26.029-19.688zm7.026 21.475h-.3v3.17a1.187 1.187 0 01-1.186 1.186h-2.166v2.428h-6.639l-3.563-5.956a7.507 7.507 0 1113.674-5.694l1.01 3.779a.861.861 0 01-.83 1.088z"/></g></svg>