<svg xmlns="http://www.w3.org/2000/svg" viewBox="0 0 120.026 85.445"><path d="M60.013 85.445l-.089-.063L0 42.723 60.013 0l.089.063 59.924 42.66zM.863 42.723l59.15 42.108 59.15-42.108L60.013.614z" fill="#9d7b46"/><path d="M52.983 26.223c0-.43.01-.87.01-1.3 0-.24.08-.31.32-.33s.5.02.75 0h.18c.16.01.14.16.13.28-.01.23-.01.46-.01.69-.03 1.22-.12 2.47-.06 3.69.03.56 0 1.51.8 1.53a.789.789 0 00.71-.51 7.22 7.22 0 00.21-2.54c.01-.97-.01-1.94-.02-2.9a.212.212 0 01.2-.22 7.3 7.3 0 01.81-.02c.22.01.29.13.29.35 0 1.32-.03 2.54-.05 3.85-.01.91.12 2.02-.54 2.73a2.109 2.109 0 01-1.43.58 2.028 2.028 0 01-1.98-.99 4.207 4.207 0 01-.29-1.86c-.02-1-.03-2.02-.03-3.03zm7.26-1.69a2.581 2.581 0 01.78.11c.22.07.44.12.39.39-.05.24-.17.44-.24.69-.03.11-.05.22-.19.21a.435.435 0 01-.2-.07 1.169 1.169 0 00-.3-.14.71.71 0 00-.95.43 1.185 1.185 0 00.32 1.12 12.967 12.967 0 011.44 1.33 2.358 2.358 0 01.61 1.66 1.785 1.785 0 01-.02.23 2.336 2.336 0 01-.21.63 2.306 2.306 0 01-2.67.92c-.22-.05-.81-.14-.8-.45a3.144 3.144 0 01.17-.75.771.771 0 01.08-.19c.07-.12.19-.09.29-.02a2.4 2.4 0 00.55.34 1.089 1.089 0 001.23-.33 1.252 1.252 0 00-.19-1.31c-.2-.2-.43-.35-.63-.54-.22-.19-.42-.4-.62-.61a3.918 3.918 0 01-.63-.78 1.663 1.663 0 01-.15-.88 2.292 2.292 0 01.34-1.11 2.1 2.1 0 011.03-.78 2.276 2.276 0 01.57-.1zm3.28 7.47c-.31.01-.54.01-.79.01-.04 0-.09.01-.12-.01-.06-.01.42-2.1.49-2.39.2-.82.36-1.62.54-2.45.14-.66.5-2.25.52-2.39s.01-.19.15-.19c.35.02.71 0 1.05 0 .16 0 .1.01.17.19.05.3 1.19 5.71 1.23 5.83.09.28.11.57.2.85.03.08.19.55-.04.55-.17.01-.75.01-.91.01-.12 0-.13.01-.17-.11-.06-.17-.11-.38-.17-.55l-.07-.23a.188.188 0 00-.2-.14 7.454 7.454 0 00-1.25.01c-.1.02-.13.03-.14.15-.02.15-.08.87-.28.87a1.1 1.1 0 01-.21-.01zm1.31-2.27c.09 0 .18.01.27.01.18 0 .22 0 .13-.36-.09-.41-.15-.73-.24-1.11-.04-.12-.08-.42-.12-.54a.085.085 0 00-.05-.03c-.01 0-.03.02-.04.04-.06.29-.33 1.48-.38 1.7-.07.29-.06.29.22.29zm-19.44 15.36c-.09-.01-.22.02-.3-.05-.1-.08-.13-.32-.17-.46-.45-1.57-.86-3.16-1.24-4.75-.07-.31-.17-.71-.24-1.03l-.11-.42c-.02-.12-.13-.56-.13-.64-.01-.1.06-.14.16-.15.27 0 .53-.01.81-.01.14 0 .29-.05.35.11.1.27.69 3.1 1.05 4.53a.843.843 0 00.06.14s.04.01.04 0l.06-.16c.36-1.36.62-2.96 1.01-4.3.08-.29.18-.32.44-.32.23 0 .46.01.69 0 .12 0 .21.02.24.17a.416.416 0 01-.02.22c-.39 1.57-1.5 5.77-1.61 6.27-.05.19-.09.39-.15.58-.02.06-.06.24-.13.26-.11.02-.66.01-.81.01zm3.74-2.06c-.02-.56.02-3.07.02-3.77 0-.41-.01-.82.01-1.22.01-.51.04-.48.46-.48.29 0 1.49 0 1.79-.01s.37-.02.67-.03c.18 0 .23.03.25.19.03.29 0 .59.02.88.01.19-.05.18-.24.2l-1.41.01c-.15.01-.19.04-.2.2a6.125 6.125 0 00-.04 1.21c.01.13.03.15.17.15.42-.03.62.03 1.05 0 .11-.01.22-.02.33-.02.17 0 .23.06.25.23l.03.3c0 .21-.02.22-.02.43a.291.291 0 01-.34.32h-1.25c-.2 0-.22.07-.22.28 0 .39-.01.88-.01 1.26 0 .47-.07.41.38.4.27 0 .94.02 1.08.01a.391.391 0 01.43.43 4 4 0 00.01.5c0 .3-.07.41-.27.45a3.261 3.261 0 01-.54.03c-.54.02-1.08-.02-1.62 0a2.608 2.608 0 01-.62-.06c-.1-.02-.13-.05-.13-.16-.02-.32-.04-.64-.05-.96-.01-.26 0-.52 0-.77zm5.49.96c-.02-.9.03-4.25.03-4.97 0-.03-.01-.06-.01-.09-.02-.11-.09-.14-.19-.14-.16-.01-.73-.01-.87-.01-.24 0-.23-.28-.23-.56 0-.44-.01-.64.24-.64.33 0 .6.01.93.01.67-.01 2.3-.01 2.47-.01.24 0 .16.38.16.6 0 .25.05.61-.16.61h-.88c-.2 0-.25.05-.25.2l-.03 5.6c.01.17.05.49-.14.49h-.9c-.14 0-.15-.02-.15-.16-.01-.31-.01-.62-.02-.93zm3.55-.96c-.02-.56.02-3.07.02-3.77 0-.41-.01-.82.01-1.22.01-.51.04-.48.46-.48.29 0 1.49 0 1.79-.01s.37-.02.67-.03c.18 0 .23.03.25.19.03.29 0 .59.02.88.01.19-.05.18-.24.2l-1.41.01c-.15.01-.19.04-.2.2a6.125 6.125 0 00-.04 1.21c.01.13.03.15.17.15.42-.03.62.03 1.05 0 .11-.01.22-.02.33-.02.17 0 .23.06.25.23l.03.3c0 .21-.02.22-.02.43a.291.291 0 01-.34.32h-1.25c-.2 0-.22.07-.22.28 0 .39-.01.88-.01 1.26 0 .47-.07.41.38.4.27 0 .94.02 1.08.01a.391.391 0 01.43.43 4 4 0 00.01.5c0 .3-.07.41-.27.45a3.261 3.261 0 01-.54.03c-.54.02-1.08-.02-1.62 0a2.608 2.608 0 01-.62-.06c-.1-.02-.13-.05-.13-.16-.02-.32-.04-.64-.05-.96-.01-.26 0-.52 0-.77zm5.46 1.3c0 .39.08.75-.14.75-.29 0-.46.01-.74.01-.07 0-.15-.01-.22-.01-.12 0-.14-.03-.14-.16 0-.44.02-3.5.02-4.66-.01-.76-.03-1.53-.01-2.3v-.12a.249.249 0 01.27-.26c.34 0 .53 0 .8.01.31.01.61-.02.92 0a1.761 1.761 0 011.27.65 2.471 2.471 0 01.48 1.91 2.541 2.541 0 01-1 1.54c-.02.03-.17.1-.15.14.02.09.62 1.25.71 1.45a17.28 17.28 0 01.78 1.62c.03.11 0 .19-.13.19l-1.1-.01c-.06 0-.13.02-.17-.04-.03-.03-.14-.35-.19-.46-.36-.76-.71-1.54-1.11-2.32a.067.067 0 00-.07-.05c-.04 0-.06.06-.07.09-.01.13-.01 1.77-.01 2.03zm0-3.9s.01.31.01.47c.01.24.29.19.44.15a.969.969 0 00.6-.42 1.325 1.325 0 00-.19-1.65c-.17-.12-.56-.26-.75-.12-.14.11-.09.41-.1.56zm4.48 4.57c-.31.01-.54.01-.79.01-.04 0-.09.01-.12-.01-.06-.01.42-2.1.49-2.39.2-.82.36-1.62.54-2.45.14-.66.5-2.25.52-2.39s.01-.19.15-.19c.35.02.71 0 1.05 0 .16 0 .1.01.17.19.05.3 1.19 5.71 1.23 5.83.09.28.11.57.2.85.03.08.19.55-.04.55-.17.01-.75.01-.91.01-.12 0-.13.01-.17-.11-.06-.17-.11-.38-.17-.55l-.07-.23a.188.188 0 00-.2-.14 7.454 7.454 0 00-1.25.01c-.1.02-.13.03-.14.15-.02.15-.08.87-.28.87a1.1 1.1 0 01-.21-.01zm1.31-2.27c.09 0 .18.01.27.01.18 0 .22 0 .13-.36-.09-.41-.15-.73-.24-1.11-.04-.12-.08-.42-.12-.54a.085.085 0 00-.05-.03c-.01 0-.03.02-.04.04-.06.29-.33 1.48-.38 1.7-.07.29-.06.29.22.29zm7.37-4.92c-.03-.13-.02-.23-.16-.23-.28.01-.61-.02-.89 0-.05.01-.18.02-.21.06-.05.07-.02.16-.02.26 0 .07.08 3.58.08 3.73 0 .06.01.26-.03.3h-.01a1.367 1.367 0 01-.2-.38c-.18-.35-1.33-3.24-1.6-3.87a.135.135 0 00-.15-.1c-.22 0-.44 0-.66.01-.32 0-.41.06-.41.38 0 .37.02 5.35 0 6.19v.79c.01.1.06.13.16.13a2.946 2.946 0 01.42-.01h.5c.2 0 .21-.04.21-.28 0-.48-.06-3.5-.05-3.85 0-.04-.02-.11.03-.13s.09.08.11.12c.21.45 1.69 4.02 1.77 4.09.09.1.51.05.81.05.2 0 .31.01.31-.29 0-.17.02-6.83-.01-6.97zm-25.86 14.61a2.775 2.775 0 00-2.51-1.85 2.751 2.751 0 00-2.5 1.85 6.084 6.084 0 00-.26 1.95 5.866 5.866 0 00.24 1.61 2.7 2.7 0 001.01 1.57 2.718 2.718 0 001.32.53c.07 0 .13.01.19.01s.13-.01.2-.01a2.646 2.646 0 001.31-.53 2.717 2.717 0 001.02-1.57 6.272 6.272 0 00.24-1.61 6.084 6.084 0 00-.26-1.95zm-.97 2.68a2.2 2.2 0 01-.82 1.57 1.666 1.666 0 01-.72.21 1.624 1.624 0 01-.71-.21 2.2 2.2 0 01-.82-1.57 5.179 5.179 0 01.06-1.84 2.2 2.2 0 01.82-1.42.816.816 0 01.26-.14.909.909 0 01.39-.08.953.953 0 01.4.08.939.939 0 01.26.14 2.292 2.292 0 01.82 1.42 5.179 5.179 0 01.06 1.84zm2.24-4.53c.28 0 .45.01.67 0a.262.262 0 01.27.19c.03.09.9 3.76.91 3.8.01.02.02.07.06.07s.04-.04.04-.06c.07-.34.59-3.18.67-3.62.01-.05.01-.1.02-.14.05-.19.08-.21.29-.22.26-.02.4.01.66-.01h.12c.23.01.3.14.32.36.07.56.57 3.43.58 3.47.02.1.04.21.11.21.04 0 .08-.15.08-.16.11-.47.25-.93.38-1.4.18-.63.32-1.36.47-2 .03-.1.08-.21.11-.31a.237.237 0 01.23-.16 1.477 1.477 0 01.21-.01c.22-.01.41.01.63.01.44 0 .18.63.11.84-.2.63-.37 1.33-.53 1.97-.21.8-.42 1.59-.62 2.39-.16.65-.33 1.39-.46 2.05a.264.264 0 01-.28.23h-.8c-.08 0-.11-.05-.13-.11-.12-.49-.72-3.33-.77-3.45a.055.055 0 00-.05-.03.054.054 0 00-.04.03.845.845 0 00-.05.17c-.24.99-.49 2.01-.69 3.04-.03.17-.04.35-.17.35h-.87c-.12 0-.13 0-.16-.12-.08-.28-1.63-6.69-1.71-7a.489.489 0 01-.01-.21c.02-.13.09-.18.23-.18.08 0 .16.01.17.01zm12.34.24c-.03-.13-.02-.23-.16-.23-.28.01-.61-.02-.89 0-.05.01-.18.02-.21.06-.05.07-.02.16-.02.26 0 .07.08 3.58.08 3.73 0 .06.01.26-.03.3h-.01a1.367 1.367 0 01-.2-.38c-.18-.35-1.33-3.24-1.6-3.87a.135.135 0 00-.15-.1c-.22 0-.44 0-.66.01-.32 0-.41.06-.41.38 0 .37.02 5.35 0 6.19v.79c.01.1.06.13.16.13a2.946 2.946 0 01.42-.01h.5c.2 0 .21-.04.21-.28 0-.48-.06-3.5-.05-3.85 0-.04-.02-.11.03-.13s.09.08.11.12c.21.45 1.69 4.02 1.77 4.09.09.1.51.05.81.05.2 0 .31.01.31-.29 0-.17.02-6.83-.01-6.97zm1.04 5.22c-.02-.56.02-3.07.02-3.77 0-.41-.01-.82.01-1.22.01-.51.04-.48.46-.48.29 0 1.49 0 1.79-.01s.37-.02.67-.03c.18 0 .23.03.25.19.03.29 0 .59.02.88.01.19-.05.18-.24.2l-1.41.01c-.15.01-.19.04-.2.2a6.125 6.125 0 00-.04 1.21c.01.13.03.15.17.15.42-.03.62.03 1.05 0 .11-.01.22-.02.33-.02.17 0 .23.06.25.23l.03.3c0 .21-.02.22-.02.43a.291.291 0 01-.34.32h-1.25c-.2 0-.22.07-.22.28 0 .39-.01.88-.01 1.26 0 .47-.07.41.38.4.27 0 .94.02 1.08.01a.391.391 0 01.43.43 4 4 0 00.01.5c0 .3-.07.41-.27.45a3.261 3.261 0 01-.54.03c-.54.02-1.08-.02-1.62 0a2.608 2.608 0 01-.62-.06c-.1-.02-.13-.05-.13-.16-.02-.32-.04-.64-.05-.96-.01-.26 0-.52 0-.77zm8.43.21a2.527 2.527 0 01-1.32 1.42 6.2 6.2 0 01-2.18.32c-.82 0-.71-.13-.71-.43 0-.28.01-.55.01-.83 0-.67.01-1.35 0-2.02 0-.27.03-.6.02-.87-.02-.3 0-2.11-.02-2.72a2.21 2.21 0 01.04-.35.2.2 0 01.2-.18c.43-.04.87-.02 1.3-.02a2.813 2.813 0 011.22.18 2.989 2.989 0 011.62 2.04 6.119 6.119 0 01.14 2.09 4.1 4.1 0 01-.16.98c-.05.13-.1.26-.16.39zm-2.91-1.04c0 .14 0 .28.01.41 0 .3-.02.6-.02.9s.07.26.51.26c.66 0 1.41-.89 1.41-2.17 0-.27-.01-.54-.02-.81a2.717 2.717 0 00-.37-1.33 1.16 1.16 0 00-.52-.53 1.712 1.712 0 00-.75-.16c-.22 0-.25.01-.26.22v.12c.03.64.01 1.13.01 1.89z" fill="#e5e4e0"/></svg>